<svg width="30" height="30" viewBox="0 0 30 30" fill="none" xmlns="http://www.w3.org/2000/svg">
    <path d="M12.8407 0.603516C10.1915 0.972656 7.62702 2.01562 5.4496 3.75586L10.131 8.29102C11.8125 6.19336 12.75 3.5332 12.8407 0.603516ZM15 13.0078L24.5504 3.75586C21.9859 1.70508 18.8891 0.621094 15.75 0.46875C15.6774 4.21289 14.4496 7.63477 12.1996 10.2949L15 13.0078ZM3.39315 5.74805C1.59677 7.85742 0.520161 10.3418 0.139113 12.9082C3.16331 12.8203 5.91532 11.9121 8.0746 10.2832L3.39315 5.74805ZM19.8569 17.7129C22.5968 15.5391 26.129 14.3496 30 14.2734C29.8427 11.2324 28.7238 8.23242 26.6069 5.74805L17.0565 15L19.8569 17.7129ZM15 16.9922L5.4496 26.2441C8.01411 28.2891 11.1109 29.3789 14.25 29.5312C14.3286 25.7812 15.5565 22.3594 17.8004 19.7051L15 16.9922ZM26.6069 24.252C28.4032 22.1426 29.4798 19.6582 29.8609 17.0918C26.8306 17.1855 24.0847 18.0938 21.9254 19.7168L26.6069 24.252ZM10.1431 12.2871C7.39718 14.4668 3.86492 15.6621 0 15.7266C0.157258 18.7676 1.27621 21.7676 3.39315 24.252L12.9435 15L10.1431 12.2871ZM17.1593 29.3965C19.8085 29.0273 22.373 27.9844 24.5504 26.2441L19.869 21.709C18.1935 23.8008 17.256 26.4668 17.1593 29.3965Z"
          fill="#333333"/>
</svg>
