<svg width="30" height="16" viewBox="0 0 30 16" fill="none" xmlns="http://www.w3.org/2000/svg">
    <path d="M28.0725 7.83875C29.2537 7.24813 30 6.04063 30 4.72016V4.36203C30 2.43594 28.4391 0.875 26.513 0.875C25.012 0.875 23.6798 1.83547 23.205 3.25906C22.845 4.33859 22.6612 5.375 21.4186 5.375H8.58094C7.2975 5.375 7.10063 4.17781 6.79453 3.25906C6.32016 1.83547 4.9875 0.875 3.48703 0.875C1.56094 0.875 0 2.43594 0 4.36203V4.72016C0 6.04063 0.74625 7.24813 1.9275 7.83875C2.36953 8.05953 2.36953 8.69047 1.9275 8.91125C0.74625 9.50187 0 10.7094 0 12.0298V12.388C0 14.3141 1.56094 15.875 3.48656 15.875C4.9875 15.875 6.31969 14.9145 6.79453 13.4909C7.15453 12.4114 7.33828 11.375 8.58094 11.375H21.4186C22.702 11.375 22.8989 12.5722 23.205 13.4909C23.6798 14.9145 25.0125 15.875 26.513 15.875C28.4386 15.875 29.9995 14.3141 29.9995 12.388V12.0298C29.9995 10.7089 29.2533 9.50187 28.072 8.91125C27.6305 8.69047 27.6305 8.05953 28.0725 7.83875Z"
          fill="#333333"/>
</svg>
