<svg width="24" height="30" viewBox="0 0 24 30" fill="none" xmlns="http://www.w3.org/2000/svg">
    <path d="M6 6H4.5C4.10217 6 3.72064 5.84196 3.43934 5.56066C3.15804 5.27936 3 4.89782 3 4.5C3 4.10218 3.15804 3.72064 3.43934 3.43934C3.72064 3.15804 4.10217 3 4.5 3H21V1.5C21 1.10218 20.842 0.720644 20.5607 0.43934C20.2794 0.158035 19.8978 0 19.5 0L3 0C2.20435 0 1.44129 0.316071 0.878679 0.87868C0.31607 1.44129 0 2.20435 0 3V27C0 28.65 1.35 30 3 30H21C21.7956 30 22.5587 29.6839 23.1213 29.1213C23.6839 28.5587 24 27.7956 24 27V7.5C24 7.10218 23.842 6.72064 23.5607 6.43934C23.2794 6.15804 22.8978 6 22.5 6H12V18L9 15L6 18V6Z"
          fill="#333333"/>
</svg>
