<svg width="22" height="27" viewBox="0 0 22 27" fill="none" xmlns="http://www.w3.org/2000/svg">
    <path d="M11.056 0.790116L14 3.00012H16L18.946 0.792116C19.0439 0.719246 19.1601 0.67496 19.2817 0.664181C19.4033 0.653402 19.5255 0.676552 19.6347 0.731057C19.7439 0.785562 19.8359 0.869287 19.9004 0.972926C19.9649 1.07656 19.9993 1.19605 20 1.31812V8.00012C20 9.44412 18.956 10.3681 18 11.1461V19.0001L19.6 23.8001L21.012 24.5061C21.309 24.6547 21.5588 24.8831 21.7333 25.1657C21.9078 25.4484 22.0002 25.774 22 26.1061C22 26.6001 21.6 27.0001 21.106 27.0001H4.5C2.034 27.0001 0 25.0001 0 22.4261C0 18.0861 0.906 14.8601 1.49 12.6901C1.782 11.6041 2.07 10.7901 2.276 10.2281C2.392 9.91412 2.506 9.62212 2.66 9.33012C3.558 7.62012 6.148 8.91012 5.344 10.6661C5.24959 10.875 5.16089 11.0864 5.078 11.3001C4.896 11.7641 4.65 12.4861 4.386 13.4681C3.894 15.2981 3.348 18.0421 3.116 21.7341C3.852 17.6141 7.96 13.4781 11.27 10.5161C10.58 9.86412 10.002 9.07612 10.002 8.00012V1.31612C10.002 0.776116 10.622 0.466115 11.056 0.790116Z"
          fill="#333333"/>
</svg>
