<svg width="30" height="22" viewBox="0 0 30 22" fill="none" xmlns="http://www.w3.org/2000/svg">
    <path d="M4.875 3.26562H2.625C2.00156 3.26562 1.5 3.77502 1.5 4.4082V9.35938H0.375C0.16875 9.35938 0 9.53076 0 9.74023V12.0254C0 12.2349 0.16875 12.4062 0.375 12.4062H1.5V17.3574C1.5 17.9906 2.00156 18.5 2.625 18.5H4.875C5.49844 18.5 6 17.9906 6 17.3574V4.4082C6 3.77502 5.49844 3.26562 4.875 3.26562ZM29.625 9.35938H28.5V4.4082C28.5 3.77502 27.9984 3.26562 27.375 3.26562H25.125C24.5016 3.26562 24 3.77502 24 4.4082V17.3574C24 17.9906 24.5016 18.5 25.125 18.5H27.375C27.9984 18.5 28.5 17.9906 28.5 17.3574V12.4062H29.625C29.8313 12.4062 30 12.2349 30 12.0254V9.74023C30 9.53076 29.8313 9.35938 29.625 9.35938ZM21.375 0.21875H19.125C18.5016 0.21875 18 0.728149 18 1.36133V9.35938H12V1.36133C12 0.728149 11.4984 0.21875 10.875 0.21875H8.625C8.00156 0.21875 7.5 0.728149 7.5 1.36133V20.4043C7.5 21.0375 8.00156 21.5469 8.625 21.5469H10.875C11.4984 21.5469 12 21.0375 12 20.4043V12.4062H18V20.4043C18 21.0375 18.5016 21.5469 19.125 21.5469H21.375C21.9984 21.5469 22.5 21.0375 22.5 20.4043V1.36133C22.5 0.728149 21.9984 0.21875 21.375 0.21875Z"
          fill="#333333"/>
</svg>
