<svg width="30" height="21" viewBox="0 0 30 21" fill="none" xmlns="http://www.w3.org/2000/svg">
    <path d="M8.75 7.24992V5.99992C8.75 5.6684 8.6183 5.35046 8.38388 5.11604C8.14946 4.88162 7.83152 4.74992 7.5 4.74992C7.16848 4.74992 6.85054 4.88162 6.61612 5.11604C6.3817 5.35046 6.25 5.6684 6.25 5.99992V7.24992H5C4.66848 7.24992 4.35054 7.38162 4.11612 7.61604C3.8817 7.85046 3.75 8.1684 3.75 8.49992C3.75 8.83144 3.8817 9.14938 4.11612 9.3838C4.35054 9.61823 4.66848 9.74992 5 9.74992H6.25V10.9999C6.25 11.3314 6.3817 11.6494 6.61612 11.8838C6.85054 12.1182 7.16848 12.2499 7.5 12.2499C7.83152 12.2499 8.14946 12.1182 8.38388 11.8838C8.6183 11.6494 8.75 11.3314 8.75 10.9999V9.74992H10C10.3315 9.74992 10.6495 9.61823 10.8839 9.3838C11.1183 9.14938 11.25 8.83144 11.25 8.49992C11.25 8.1684 11.1183 7.85046 10.8839 7.61604C10.6495 7.38162 10.3315 7.24992 10 7.24992H8.75ZM11.6475 2.24992H18.3525C19.4825 1.49989 20.7948 1.07033 22.1496 1.00697C23.5044 0.943608 24.8511 1.24882 26.0462 1.89011C27.2413 2.5314 28.2401 3.48476 28.9364 4.64871C29.6326 5.81266 30.0002 7.14363 30 8.49992C30 12.6424 26.6425 20.9999 22.5 20.9999C20.03 20.9999 17.8388 18.0274 16.4725 14.7499H13.5275C12.1625 18.0274 9.97 20.9999 7.5 20.9999C3.3575 20.9999 8.67689e-08 12.6424 8.67689e-08 8.49992C-0.00020619 7.14363 0.367378 5.81266 1.06362 4.64871C1.75986 3.48476 2.75871 2.5314 3.95381 1.89011C5.14892 1.24882 6.49556 0.943608 7.85037 1.00697C9.20519 1.07033 10.5175 1.49989 11.6475 2.24992ZM22.5 7.24992C22.8315 7.24992 23.1495 7.11823 23.3839 6.8838C23.6183 6.64938 23.75 6.33144 23.75 5.99992C23.75 5.6684 23.6183 5.35046 23.3839 5.11604C23.1495 4.88162 22.8315 4.74992 22.5 4.74992C22.1685 4.74992 21.8505 4.88162 21.6161 5.11604C21.3817 5.35046 21.25 5.6684 21.25 5.99992C21.25 6.33144 21.3817 6.64938 21.6161 6.8838C21.8505 7.11823 22.1685 7.24992 22.5 7.24992ZM20 9.74992C20.3315 9.74992 20.6495 9.61823 20.8839 9.3838C21.1183 9.14938 21.25 8.83144 21.25 8.49992C21.25 8.1684 21.1183 7.85046 20.8839 7.61604C20.6495 7.38162 20.3315 7.24992 20 7.24992C19.6685 7.24992 19.3505 7.38162 19.1161 7.61604C18.8817 7.85046 18.75 8.1684 18.75 8.49992C18.75 8.83144 18.8817 9.14938 19.1161 9.3838C19.3505 9.61823 19.6685 9.74992 20 9.74992ZM25 9.74992C25.3315 9.74992 25.6495 9.61823 25.8839 9.3838C26.1183 9.14938 26.25 8.83144 26.25 8.49992C26.25 8.1684 26.1183 7.85046 25.8839 7.61604C25.6495 7.38162 25.3315 7.24992 25 7.24992C24.6685 7.24992 24.3505 7.38162 24.1161 7.61604C23.8817 7.85046 23.75 8.1684 23.75 8.49992C23.75 8.83144 23.8817 9.14938 24.1161 9.3838C24.3505 9.61823 24.6685 9.74992 25 9.74992ZM22.5 12.2499C22.8315 12.2499 23.1495 12.1182 23.3839 11.8838C23.6183 11.6494 23.75 11.3314 23.75 10.9999C23.75 10.6684 23.6183 10.3505 23.3839 10.116C23.1495 9.88162 22.8315 9.74992 22.5 9.74992C22.1685 9.74992 21.8505 9.88162 21.6161 10.116C21.3817 10.3505 21.25 10.6684 21.25 10.9999C21.25 11.3314 21.3817 11.6494 21.6161 11.8838C21.8505 12.1182 22.1685 12.2499 22.5 12.2499Z"
          fill="#333333"/>
</svg>
