<svg width="30" height="28" viewBox="0 0 30 28" fill="none" xmlns="http://www.w3.org/2000/svg">
    <path d="M29.5963 10.2497C28.0838 10.2573 22.5646 10.6106 18.4589 15.1129C16.7339 16.849 15.6797 18.8218 15 20.671C14.3203 18.8218 13.2661 16.849 11.5411 15.1129C7.43543 10.6106 1.91616 10.2573 0.403664 10.2497C0.173976 10.2485 -0.00206503 10.4489 1.82998e-05 10.7079C0.0119975 12.3438 0.371893 18.0988 4.62345 22.3855C8.99949 27.1796 13.3333 27.1245 15 27.1245C16.6667 27.1245 20.9995 27.1801 25.3766 22.3855C29.6286 18.0982 29.988 12.3438 30 10.7079C30.0021 10.4489 29.826 10.2485 29.5963 10.2497ZM14.999 16.7301C15.6667 15.6256 16.4365 14.6336 17.2953 13.77C18.2896 12.6795 19.3568 11.8188 20.4338 11.1227C19.5776 6.99192 17.7401 3.32692 15.3958 1.03183C15.1818 0.822071 14.8219 0.822071 14.6073 1.03183C12.2641 3.32517 10.4266 6.98664 9.56876 11.1139C10.6297 11.7995 11.6781 12.6456 12.6531 13.7149C13.5406 14.6095 14.3283 15.6219 14.999 16.7301Z"
          fill="#333333"/>
</svg>
