<svg width="24" height="28" viewBox="0 0 24 28" fill="none" xmlns="http://www.w3.org/2000/svg">
    <path d="M6.02144 10.6716C6.17273 12.9025 4.99426 14.8055 3.38582 14.921C1.78003 15.0365 0.353402 13.3219 0.200786 11.0897C0.0481696 8.85882 1.22796 6.95576 2.83508 6.84031C4.44219 6.72485 5.86882 8.43946 6.02011 10.6716H6.02144ZM17.0894 1.42176C15.5288 1.01302 13.8274 2.43965 13.2913 4.6068C12.7525 6.77395 13.5819 8.8628 15.1426 9.27155C16.7046 9.68029 18.4072 8.25366 18.9434 6.08651C19.6428 3.26378 17.465 1.51864 17.0908 1.42176H17.0894ZM20.7522 8.72877C19.1093 8.75265 17.8061 10.3558 17.8419 12.8375C17.8777 15.3191 19.2354 16.4498 20.881 16.4246C22.5212 16.3994 23.8271 15.2289 23.79 12.7459C23.7422 9.51573 21.145 8.72213 20.7509 8.72877H20.7522ZM8.85081 0.875C7.28882 0.875 6.02144 2.67189 6.02144 4.88682C6.02144 7.10307 7.28882 8.89863 8.85081 8.89863C10.4141 8.89863 11.6815 7.10307 11.6815 4.88682C11.6815 2.67056 10.4141 0.875 8.85081 0.875ZM8.48984 13.3351C7.58741 14.6649 6.56289 15.9628 4.5749 17.6641C2.58823 19.3655 1.74553 20.5399 1.74553 22.2718C1.74553 24.0023 2.709 26.8782 5.44813 26.8782C8.18859 26.8782 9.51303 26.2597 11.6815 26.2597C13.8487 26.2597 15.2952 27.125 18.0343 27.125C20.7735 27.125 21.9174 24.4668 21.9174 22.735C21.9174 21.0031 21.4423 20.0237 19.2473 18.0476C17.8406 16.7803 16.6488 15.7478 14.7816 13.0883C13.8593 11.7745 12.7949 11.6046 11.6815 11.6046C10.5667 11.6046 9.39359 12.0054 8.48984 13.3351Z"
          fill="#333333"/>
</svg>
