<svg width="30" height="30" viewBox="0 0 30 30" fill="none" xmlns="http://www.w3.org/2000/svg">
<path d="M15 22.5C16.2426 22.5 17.25 21.4926 17.25 20.25C17.25 19.0074 16.2426 18 15 18C13.7574 18 12.75 19.0074 12.75 20.25C12.75 21.4926 13.7574 22.5 15 22.5Z" fill="#333333"/>
<path d="M15 10.5C15.8284 10.5 16.5 9.82843 16.5 9C16.5 8.17157 15.8284 7.5 15 7.5C14.1716 7.5 13.5 8.17157 13.5 9C13.5 9.82843 14.1716 10.5 15 10.5Z" fill="#333333"/>
<path d="M22.5 0H7.5C6.30653 0 5.16193 0.474106 4.31802 1.31802C3.47411 2.16193 3 3.30653 3 4.5V25.5C3 26.6935 3.47411 27.8381 4.31802 28.682C5.16193 29.5259 6.30653 30 7.5 30H22.5C23.6935 30 24.8381 29.5259 25.682 28.682C26.5259 27.8381 27 26.6935 27 25.5V4.5C27 3.30653 26.5259 2.16193 25.682 1.31802C24.8381 0.474106 23.6935 0 22.5 0ZM15 4.5C15.89 4.5 16.76 4.76392 17.5001 5.25839C18.2401 5.75285 18.8169 6.45566 19.1575 7.27792C19.4981 8.10019 19.5872 9.00499 19.4135 9.87791C19.2399 10.7508 18.8113 11.5526 18.182 12.182C17.5526 12.8113 16.7508 13.2399 15.8779 13.4135C15.005 13.5872 14.1002 13.4981 13.2779 13.1575C12.4557 12.8169 11.7529 12.2401 11.2584 11.5001C10.7639 10.76 10.5 9.89002 10.5 9C10.5 7.80653 10.9741 6.66193 11.818 5.81802C12.6619 4.97411 13.8065 4.5 15 4.5ZM15 25.5C13.9616 25.5 12.9466 25.1921 12.0833 24.6152C11.2199 24.0383 10.547 23.2184 10.1496 22.2591C9.75227 21.2998 9.6483 20.2442 9.85088 19.2258C10.0534 18.2074 10.5535 17.2719 11.2877 16.5377C12.0219 15.8035 12.9574 15.3034 13.9758 15.1009C14.9942 14.8983 16.0498 15.0023 17.0091 15.3996C17.9684 15.797 18.7883 16.4699 19.3652 17.3333C19.9421 18.1966 20.25 19.2116 20.25 20.25C20.25 21.6424 19.6969 22.9777 18.7123 23.9623C17.7277 24.9469 16.3924 25.5 15 25.5Z" fill="#333333"/>
</svg>
