<svg width="30" height="30" viewBox="0 0 30 30" fill="none" xmlns="http://www.w3.org/2000/svg">
<path d="M25.4333 0H4.56667C3.35551 0 2.19396 0.48113 1.33755 1.33755C0.48113 2.19396 0 3.35551 0 4.56667V25.4333C0 26.6445 0.48113 27.806 1.33755 28.6625C2.19396 29.5189 3.35551 30 4.56667 30H25.4333C26.6445 30 27.806 29.5189 28.6625 28.6625C29.5189 27.806 30 26.6445 30 25.4333V4.56667C30 3.35551 29.5189 2.19396 28.6625 1.33755C27.806 0.48113 26.6445 0 25.4333 0ZM6.66667 13.3333H3.33333V10H6.66667V13.3333ZM3.33333 16.6667H6.66667V20H3.33333V16.6667ZM26.6667 13.3333H23.3333V10H26.6667V13.3333ZM23.3333 16.6667H26.6667V20H23.3333V16.6667ZM26.6667 4.56667V6.66667H23.3333V3.33333H25.4333C25.5953 3.33333 25.7557 3.36523 25.9053 3.42722C26.0549 3.4892 26.1909 3.58004 26.3054 3.69457C26.42 3.80909 26.5108 3.94506 26.5728 4.09469C26.6348 4.24433 26.6667 4.4047 26.6667 4.56667ZM4.56667 3.33333H6.66667V6.66667H3.33333V4.56667C3.33333 4.4047 3.36523 4.24433 3.42722 4.09469C3.4892 3.94506 3.58004 3.80909 3.69457 3.69457C3.80909 3.58004 3.94506 3.4892 4.09469 3.42722C4.24433 3.36523 4.4047 3.33333 4.56667 3.33333ZM3.33333 25.4333V23.3333H6.66667V26.6667H4.56667C4.4047 26.6667 4.24433 26.6348 4.09469 26.5728C3.94506 26.5108 3.80909 26.42 3.69457 26.3054C3.58004 26.1909 3.4892 26.0549 3.42722 25.9053C3.36523 25.7557 3.33333 25.5953 3.33333 25.4333ZM26.6667 25.4333C26.6667 25.7604 26.5367 26.0741 26.3054 26.3054C26.0741 26.5367 25.7604 26.6667 25.4333 26.6667H23.3333V23.3333H26.6667V25.4333Z" fill="#333333"/>
</svg>
