<svg width="30" height="30" viewBox="0 0 30 30" fill="none" xmlns="http://www.w3.org/2000/svg">
<path d="M28.0725 14.8387C29.2537 14.2481 30 13.0406 30 11.7202V11.362C30 9.43594 28.4391 7.875 26.513 7.875C25.012 7.875 23.6798 8.83547 23.205 10.2591C22.845 11.3386 22.6612 12.375 21.4186 12.375H8.58094C7.2975 12.375 7.10063 11.1778 6.79453 10.2591C6.32016 8.83547 4.9875 7.875 3.48703 7.875C1.56094 7.875 0 9.43594 0 11.362V11.7202C0 13.0406 0.74625 14.2481 1.9275 14.8387C2.36953 15.0595 2.36953 15.6905 1.9275 15.9113C0.74625 16.5019 0 17.7094 0 19.0298V19.388C0 21.3141 1.56094 22.875 3.48656 22.875C4.9875 22.875 6.31969 21.9145 6.79453 20.4909C7.15453 19.4114 7.33828 18.375 8.58094 18.375H21.4186C22.702 18.375 22.8989 19.5722 23.205 20.4909C23.6798 21.9145 25.0125 22.875 26.513 22.875C28.4386 22.875 29.9995 21.3141 29.9995 19.388V19.0298C29.9995 17.7089 29.2533 16.5019 28.072 15.9113C27.6305 15.6905 27.6305 15.0595 28.0725 14.8387Z" fill="#333333"/>
</svg>
