<svg width="30" height="30" viewBox="0 0 30 30" fill="none" xmlns="http://www.w3.org/2000/svg">
<path d="M4.875 7.26562H2.625C2.00156 7.26562 1.5 7.77502 1.5 8.4082V13.3594H0.375C0.16875 13.3594 0 13.5308 0 13.7402V16.0254C0 16.2349 0.16875 16.4062 0.375 16.4062H1.5V21.3574C1.5 21.9906 2.00156 22.5 2.625 22.5H4.875C5.49844 22.5 6 21.9906 6 21.3574V8.4082C6 7.77502 5.49844 7.26562 4.875 7.26562ZM29.625 13.3594H28.5V8.4082C28.5 7.77502 27.9984 7.26562 27.375 7.26562H25.125C24.5016 7.26562 24 7.77502 24 8.4082V21.3574C24 21.9906 24.5016 22.5 25.125 22.5H27.375C27.9984 22.5 28.5 21.9906 28.5 21.3574V16.4062H29.625C29.8313 16.4062 30 16.2349 30 16.0254V13.7402C30 13.5308 29.8313 13.3594 29.625 13.3594ZM21.375 4.21875H19.125C18.5016 4.21875 18 4.72815 18 5.36133V13.3594H12V5.36133C12 4.72815 11.4984 4.21875 10.875 4.21875H8.625C8.00156 4.21875 7.5 4.72815 7.5 5.36133V24.4043C7.5 25.0375 8.00156 25.5469 8.625 25.5469H10.875C11.4984 25.5469 12 25.0375 12 24.4043V16.4062H18V24.4043C18 25.0375 18.5016 25.5469 19.125 25.5469H21.375C21.9984 25.5469 22.5 25.0375 22.5 24.4043V5.36133C22.5 4.72815 21.9984 4.21875 21.375 4.21875Z" fill="#333333"/>
</svg>
