<svg width="30" height="30" viewBox="0 0 30 30" fill="none" xmlns="http://www.w3.org/2000/svg">
<path d="M22.4648 7.55859C23.993 7.83223 25.2465 8.65254 26.2263 10.0195C27.0884 11.2307 27.6763 12.7541 27.9894 14.5898C28.2642 16.2697 28.2436 17.949 27.9305 19.6289C27.4603 22.4021 26.52 24.7266 25.1094 26.6016C23.424 28.8674 21.3084 30 18.7615 30C18.1342 30 17.4492 29.8049 16.7042 29.4141C16.1946 29.1018 15.6267 28.9453 14.9994 28.9453C14.3721 28.9453 13.8048 29.1018 13.2946 29.4141C12.5496 29.8049 11.8646 30 11.2373 30C8.69037 30 6.5748 28.8674 4.88941 26.6016C3.47884 24.7266 2.53846 22.4021 2.06827 19.6289C1.7552 17.949 1.73461 16.2697 2.00942 14.5898C2.32249 12.7541 2.91038 11.2307 3.77249 10.0195C4.7523 8.65254 6.00575 7.83223 7.53402 7.55859C8.4744 7.40215 9.76728 7.53926 11.4132 7.96875C12.8238 8.35957 14.019 8.82832 14.9988 9.375C15.9786 8.82832 17.1738 8.35957 18.5844 7.96875C20.2309 7.53926 21.5244 7.40215 22.4648 7.55859ZM19.2317 5.15625C18.6832 5.66426 17.9577 6.03516 17.0567 6.26953C16.4294 6.46465 15.7444 6.5625 14.9994 6.5625L14.1179 6.50391C14.0396 5.95723 14.0396 5.33203 14.1179 4.62891C14.275 3.22266 14.7252 2.14863 15.4696 1.40625C16.018 0.898242 16.7436 0.527344 17.6446 0.292969C18.2719 0.0978516 18.9569 0 19.7019 0L20.5834 0.0585938L20.6423 0.9375C20.6423 1.67988 20.544 2.36309 20.3486 2.98828C20.1138 3.88652 19.7419 4.60957 19.2317 5.15625Z" fill="#333333"/>
</svg>
