<svg width="30" height="30" viewBox="0 0 30 30" fill="none" xmlns="http://www.w3.org/2000/svg">
<g clip-path="url(#clip0_104_2226)">
<path d="M6.83496 12.8526C6.92072 12.9422 7.02373 13.0134 7.13777 13.0621C7.25181 13.1108 7.37453 13.1359 7.49854 13.1359C7.62254 13.1359 7.74526 13.1108 7.8593 13.0621C7.97334 13.0134 8.07635 12.9422 8.16211 12.8526L13.8311 7.0032C15.4805 5.30398 15.3838 2.48562 13.5434 0.91648C11.9385 -0.451098 9.55078 -0.205005 8.07773 1.31492L7.5 1.90906L6.92285 1.31492C5.45215 -0.205005 3.06152 -0.451098 1.45664 0.91648C-0.383789 2.48562 -0.476953 5.30222 1.16367 7.0032L6.83496 12.8526ZM15.2678 18.7407H12.4553L12.0404 17.9063C11.9257 17.6002 11.7203 17.3364 11.4516 17.1503C11.1829 16.9641 10.8638 16.8644 10.5369 16.8645H6.33516C6.00827 16.8644 5.68914 16.9641 5.42045 17.1503C5.15176 17.3364 4.94633 17.6002 4.83164 17.9063L4.42148 18.7407H1.60898C1.39767 18.7406 1.18841 18.7822 0.993162 18.863C0.797916 18.9438 0.620512 19.0624 0.471089 19.2118C0.321666 19.3612 0.203152 19.5386 0.12232 19.7339C0.0414882 19.9291 -7.68895e-05 20.1384 1.06816e-07 20.3497L1.06816e-07 28.3917C-7.68536e-05 28.6028 0.0414342 28.8119 0.122163 29.007C0.202892 29.2021 0.321258 29.3794 0.470503 29.5287C0.619748 29.6781 0.796949 29.7966 0.991988 29.8775C1.18703 29.9583 1.39609 30 1.60723 30.0001H15.2678C15.6941 29.9998 16.1029 29.8302 16.4043 29.5286C16.7057 29.227 16.875 28.818 16.875 28.3917V20.3497C16.8752 19.9232 16.7059 19.5141 16.4045 19.2124C16.1031 18.9107 15.6942 18.741 15.2678 18.7407ZM8.4375 27.4219C7.83489 27.4219 7.2458 27.2432 6.74475 26.9085C6.24369 26.5737 5.85317 26.0978 5.62255 25.5411C5.39194 24.9843 5.33161 24.3717 5.44917 23.7807C5.56673 23.1896 5.85692 22.6467 6.28303 22.2206C6.70915 21.7945 7.25205 21.5043 7.84308 21.3867C8.43412 21.2692 9.04675 21.3295 9.60349 21.5601C10.1602 21.7907 10.6361 22.1813 10.9709 22.6823C11.3057 23.1834 11.4844 23.7725 11.4844 24.3751C11.4844 25.1832 11.1634 25.9581 10.592 26.5295C10.0206 27.1009 9.24558 27.4219 8.4375 27.4219ZM29.2617 20.6309H25.7121L27.0223 17.6573C27.1453 17.2677 26.792 16.8833 26.3086 16.8833H21.8795C21.5104 16.8833 21.1963 17.1118 21.1471 17.4165L20.1627 23.6819C20.1041 24.051 20.4486 24.3786 20.8951 24.3786H24.5461L23.1281 29.2419C23.0174 29.6315 23.3742 29.9977 23.8447 29.9977C23.9681 30.001 24.0906 29.9748 24.2018 29.9213C24.3131 29.8678 24.41 29.7885 24.4846 29.6901L29.8986 21.5509C30.1846 21.146 29.8307 20.6309 29.2617 20.6309ZM28.0125 0.0194093L19.3072 1.35769C18.4494 1.48953 17.8125 2.28054 17.8125 3.21277V9.46882C17.504 9.40543 17.19 9.37207 16.875 9.36921C14.8037 9.36921 13.125 10.6278 13.125 12.1817C13.125 13.7356 14.8037 14.9942 16.875 14.9942C18.9375 14.9942 20.6092 13.745 20.625 12.2016V5.83953L27.1875 4.83054V7.59499C26.879 7.5316 26.565 7.49824 26.25 7.49539C24.1787 7.49539 22.5 8.75398 22.5 10.3079C22.5 11.8618 24.1787 13.1204 26.25 13.1204C28.3125 13.1204 29.9842 11.8712 30 10.3278V1.87507C30 0.733667 29.0625 -0.141723 28.0125 0.0194093Z" fill="#333333"/>
</g>
<defs>
<clipPath id="clip0_104_2226">
<rect width="30" height="30" fill="white"/>
</clipPath>
</defs>
</svg>
