<svg width="30" height="30" viewBox="0 0 30 30" fill="none" xmlns="http://www.w3.org/2000/svg">
<path d="M29.5963 11.2497C28.0838 11.2573 22.5646 11.6106 18.4589 16.1129C16.7339 17.849 15.6797 19.8218 15 21.671C14.3203 19.8218 13.2661 17.849 11.5411 16.1129C7.43543 11.6106 1.91616 11.2573 0.403664 11.2497C0.173976 11.2485 -0.00206503 11.4489 1.82998e-05 11.7079C0.0119975 13.3438 0.371893 19.0988 4.62345 23.3855C8.99949 28.1796 13.3333 28.1245 15 28.1245C16.6667 28.1245 20.9995 28.1801 25.3766 23.3855C29.6286 19.0982 29.988 13.3438 30 11.7079C30.0021 11.4489 29.826 11.2485 29.5963 11.2497ZM14.999 17.7301C15.6667 16.6256 16.4365 15.6336 17.2953 14.77C18.2896 13.6795 19.3568 12.8188 20.4338 12.1227C19.5776 7.99192 17.7401 4.32692 15.3958 2.03183C15.1818 1.82207 14.8219 1.82207 14.6073 2.03183C12.2641 4.32517 10.4266 7.98664 9.56876 12.1139C10.6297 12.7995 11.6781 13.6456 12.6531 14.7149C13.5406 15.6095 14.3283 16.6219 14.999 17.7301Z" fill="#333333"/>
</svg>
