<svg width="30" height="30" viewBox="0 0 30 30" fill="none" xmlns="http://www.w3.org/2000/svg">
<g clip-path="url(#clip0_104_2224)">
<path d="M29.4514 2.28521L27.7152 0.549082C27.5411 0.374927 27.3344 0.236777 27.1069 0.142523C26.8794 0.0482683 26.6355 -0.000244141 26.3893 -0.000244141C26.143 -0.000244141 25.8991 0.0482683 25.6716 0.142523C25.4441 0.236777 25.2374 0.374927 25.0633 0.549082L22.3516 3.26373C22.1243 3.49042 21.9531 3.76712 21.8518 4.07174L21.1393 6.211L16.6709 10.6794C15.9584 10.1661 15.1768 9.75709 14.3213 9.55787C12.3613 9.10201 10.3955 9.50631 9.05488 10.8469C8.50799 11.3961 8.10123 12.0687 7.86895 12.8081C7.51739 13.8956 6.50899 14.7235 5.39922 14.8272C4.01055 14.9602 2.71973 15.4981 1.73067 16.4936C-0.943552 19.1602 -0.462498 23.9649 2.78828 27.2139C6.03906 30.4629 10.8402 30.9376 13.5098 28.2727C14.5059 27.2836 15.0426 25.9934 15.1768 24.5983C15.2799 23.4938 16.1078 22.4813 17.1941 22.1292C17.9336 21.8965 18.6064 21.4895 19.1559 20.9426C20.4959 19.602 20.8984 17.6403 20.4449 15.6838C20.2463 14.826 19.8373 14.0432 19.3223 13.3284L23.7895 8.86119L25.927 8.14869C26.2316 8.04736 26.5083 7.8762 26.735 7.64889L29.4496 4.93482C29.8009 4.58351 29.9983 4.10716 29.9986 3.61038C29.999 3.1136 29.8021 2.63699 29.4514 2.28521ZM12.1879 20.6251C11.6316 20.6251 11.0879 20.4601 10.6254 20.1511C10.1628 19.842 9.80235 19.4028 9.58948 18.8889C9.37661 18.3749 9.32091 17.8094 9.42943 17.2639C9.53796 16.7183 9.80582 16.2172 10.1992 15.8238C10.5925 15.4305 11.0936 15.1626 11.6392 15.0541C12.1848 14.9456 12.7503 15.0013 13.2642 15.2141C13.7781 15.427 14.2174 15.7875 14.5264 16.25C14.8354 16.7125 15.0004 17.2563 15.0004 17.8126C15.0004 18.5585 14.7041 19.2738 14.1766 19.8013C13.6492 20.3287 12.9338 20.6251 12.1879 20.6251Z" fill="#333333"/>
</g>
<defs>
<clipPath id="clip0_104_2224">
<rect width="30" height="30" fill="white"/>
</clipPath>
</defs>
</svg>
