<svg width="30" height="30" viewBox="0 0 30 30" fill="none" xmlns="http://www.w3.org/2000/svg">
<path d="M19.6875 26.25H0.9375C0.421875 26.25 0 26.6719 0 27.1875V29.0625C0 29.5781 0.421875 30 0.9375 30H19.6875C20.2031 30 20.625 29.5781 20.625 29.0625V27.1875C20.625 26.6719 20.2031 26.25 19.6875 26.25ZM28.8984 6.28711L24.1523 1.54102C23.7891 1.17773 23.1914 1.17773 22.8281 1.54102L22.166 2.20312C21.8027 2.56641 21.8027 3.16406 22.166 3.52734L24.375 5.73633V9.375C24.375 11.0215 25.5996 12.3809 27.1875 12.6094V22.0312C27.1875 22.8047 26.5547 23.4375 25.7812 23.4375C25.0078 23.4375 24.375 22.8047 24.375 22.0312V20.1562C24.375 17.3086 22.0664 15 19.2188 15H18.75V3.75C18.75 1.68164 17.0684 0 15 0H5.625C3.55664 0 1.875 1.68164 1.875 3.75V24.375H18.75V17.8125H19.2188C20.5137 17.8125 21.5625 18.8613 21.5625 20.1562V21.7852C21.5625 23.9941 23.1445 26.0039 25.3418 26.2324C27.8613 26.4844 30 24.5039 30 22.0312V8.94141C30 7.94531 29.6016 6.99023 28.8984 6.28711ZM15 11.25H5.625V3.75H15V11.25Z" fill="#333333"/>
</svg>
