<svg width="30" height="30" viewBox="0 0 30 30" fill="none" xmlns="http://www.w3.org/2000/svg">
<path d="M28.9219 17.261L22.0938 7.6582C20.9323 6.02783 19.0833 5.15625 17.2083 5.15625C16.0312 5.15625 14.8385 5.49976 13.7969 6.21753C12.7708 6.92505 12.0417 7.89917 11.6354 8.97583C11.4844 5.93555 8.95833 3.51562 5.83333 3.51562C2.60937 3.51562 0 6.08423 0 9.25781V20.7422C0 23.9158 2.60937 26.4844 5.83333 26.4844C9.05729 26.4844 11.6667 23.9158 11.6667 20.7422V13.0979C11.8385 13.5388 12.0469 13.9746 12.3333 14.3796L19.1667 23.9824C20.3229 25.6128 22.1719 26.4844 24.0521 26.4844C25.2344 26.4844 26.4219 26.1409 27.4635 25.4231C30.1562 23.5671 30.8073 19.9116 28.9219 17.261ZM8.33333 15H3.33333V9.25781C3.33333 7.89917 4.45312 6.79688 5.83333 6.79688C7.21354 6.79688 8.33333 7.89917 8.33333 9.25781V15ZM18.4792 17.302L15.0625 12.498C14.6615 11.9341 14.5052 11.2471 14.6302 10.5703C14.75 9.89356 15.1354 9.29883 15.7083 8.90405C16.151 8.59644 16.6719 8.4375 17.2083 8.4375C18.0677 8.4375 18.8698 8.84766 19.3594 9.53979L22.776 14.3438L18.4792 17.302Z" fill="#333333"/>
</svg>
