<svg width="30" height="30" viewBox="0 0 30 30" fill="none" xmlns="http://www.w3.org/2000/svg">
<path d="M25.2738 7.15121L29.5822 4.3727C29.6847 4.30442 29.7727 4.21662 29.8412 4.11432C29.9098 4.01202 29.9575 3.89723 29.9816 3.77649C30.0058 3.65575 30.0059 3.53144 29.982 3.41065C29.9581 3.28985 29.9107 3.17495 29.8424 3.0725L29.3227 2.29262C29.2544 2.19016 29.1666 2.10215 29.0643 2.03362C28.962 1.96509 28.8472 1.91738 28.7264 1.89322C28.6057 1.86906 28.4814 1.86893 28.3606 1.89282C28.2398 1.91671 28.1249 1.96416 28.0225 2.03246L21.5736 6.19262C18.658 5.67817 15.8918 5.62485 15 5.62485C12.8643 5.62485 0 5.89145 0 12.1961V21.5846C0 23.3582 1.61133 24.9643 4.21875 26.1467V20.176C4.21875 19.8031 4.36691 19.4454 4.63063 19.1817C4.89435 18.9179 5.25204 18.7698 5.625 18.7698C5.99796 18.7698 6.35565 18.9179 6.61937 19.1817C6.88309 19.4454 7.03125 19.8031 7.03125 20.176V27.1446C8.96777 27.6784 11.1955 28.027 13.5938 28.1248V22.0539C13.5938 21.681 13.7419 21.3233 14.0056 21.0596C14.2694 20.7959 14.627 20.6477 15 20.6477C15.373 20.6477 15.7306 20.7959 15.9944 21.0596C16.2581 21.3233 16.4062 21.681 16.4062 22.0539V28.1248C18.8045 28.027 21.0322 27.6784 22.9688 27.1446V20.176C22.9688 19.8031 23.1169 19.4454 23.3806 19.1817C23.6444 18.9179 24.002 18.7698 24.375 18.7698C24.748 18.7698 25.1056 18.9179 25.3694 19.1817C25.6331 19.4454 25.7812 19.8031 25.7812 20.176V26.1467C28.3887 24.9643 30 23.3582 30 21.5846V12.1961C30 9.65785 27.9047 8.10864 25.2738 7.15121ZM15 15.9514C8.26875 15.9514 2.8125 14.2704 2.8125 12.1961C2.8125 10.1219 8.26875 8.44145 15 8.44145C16.0049 8.44145 16.9764 8.48305 17.9109 8.55336L13.6447 11.3073C13.5423 11.3756 13.4544 11.4634 13.3859 11.5657C13.3174 11.6681 13.2698 11.7829 13.2457 11.9036C13.2216 12.0243 13.2215 12.1486 13.2454 12.2694C13.2693 12.3902 13.3168 12.505 13.3852 12.6075L13.9049 13.3873C13.9732 13.4898 14.061 13.5778 14.1633 13.6464C14.2656 13.7149 14.3804 13.7626 14.5011 13.7867C14.6218 13.8109 14.7461 13.811 14.8669 13.7871C14.9877 13.7633 15.1026 13.7158 15.2051 13.6475L22.1566 9.16391C25.2006 9.8436 27.1875 10.9475 27.1875 12.1961C27.1875 14.2704 21.7307 15.9514 15 15.9514Z" fill="#333333"/>
</svg>
