<svg width="30" height="30" viewBox="0 0 30 30" fill="none" xmlns="http://www.w3.org/2000/svg">
<g clip-path="url(#clip0_104_2182)">
<path d="M8.75 11.2499V9.99992C8.75 9.6684 8.6183 9.35046 8.38388 9.11604C8.14946 8.88162 7.83152 8.74992 7.5 8.74992C7.16848 8.74992 6.85054 8.88162 6.61612 9.11604C6.3817 9.35046 6.25 9.6684 6.25 9.99992V11.2499H5C4.66848 11.2499 4.35054 11.3816 4.11612 11.616C3.8817 11.8505 3.75 12.1684 3.75 12.4999C3.75 12.8314 3.8817 13.1494 4.11612 13.3838C4.35054 13.6182 4.66848 13.7499 5 13.7499H6.25V14.9999C6.25 15.3314 6.3817 15.6494 6.61612 15.8838C6.85054 16.1182 7.16848 16.2499 7.5 16.2499C7.83152 16.2499 8.14946 16.1182 8.38388 15.8838C8.6183 15.6494 8.75 15.3314 8.75 14.9999V13.7499H10C10.3315 13.7499 10.6495 13.6182 10.8839 13.3838C11.1183 13.1494 11.25 12.8314 11.25 12.4999C11.25 12.1684 11.1183 11.8505 10.8839 11.616C10.6495 11.3816 10.3315 11.2499 10 11.2499H8.75ZM11.6475 6.24992H18.3525C19.4825 5.49989 20.7948 5.07033 22.1496 5.00697C23.5044 4.94361 24.8511 5.24882 26.0462 5.89011C27.2413 6.5314 28.2401 7.48476 28.9364 8.64871C29.6326 9.81266 30.0002 11.1436 30 12.4999C30 16.6424 26.6425 24.9999 22.5 24.9999C20.03 24.9999 17.8388 22.0274 16.4725 18.7499H13.5275C12.1625 22.0274 9.97 24.9999 7.5 24.9999C3.3575 24.9999 8.67689e-08 16.6424 8.67689e-08 12.4999C-0.00020619 11.1436 0.367378 9.81266 1.06362 8.64871C1.75986 7.48476 2.75871 6.5314 3.95381 5.89011C5.14892 5.24882 6.49556 4.94361 7.85037 5.00697C9.20519 5.07033 10.5175 5.49989 11.6475 6.24992ZM22.5 11.2499C22.8315 11.2499 23.1495 11.1182 23.3839 10.8838C23.6183 10.6494 23.75 10.3314 23.75 9.99992C23.75 9.6684 23.6183 9.35046 23.3839 9.11604C23.1495 8.88162 22.8315 8.74992 22.5 8.74992C22.1685 8.74992 21.8505 8.88162 21.6161 9.11604C21.3817 9.35046 21.25 9.6684 21.25 9.99992C21.25 10.3314 21.3817 10.6494 21.6161 10.8838C21.8505 11.1182 22.1685 11.2499 22.5 11.2499ZM20 13.7499C20.3315 13.7499 20.6495 13.6182 20.8839 13.3838C21.1183 13.1494 21.25 12.8314 21.25 12.4999C21.25 12.1684 21.1183 11.8505 20.8839 11.616C20.6495 11.3816 20.3315 11.2499 20 11.2499C19.6685 11.2499 19.3505 11.3816 19.1161 11.616C18.8817 11.8505 18.75 12.1684 18.75 12.4999C18.75 12.8314 18.8817 13.1494 19.1161 13.3838C19.3505 13.6182 19.6685 13.7499 20 13.7499ZM25 13.7499C25.3315 13.7499 25.6495 13.6182 25.8839 13.3838C26.1183 13.1494 26.25 12.8314 26.25 12.4999C26.25 12.1684 26.1183 11.8505 25.8839 11.616C25.6495 11.3816 25.3315 11.2499 25 11.2499C24.6685 11.2499 24.3505 11.3816 24.1161 11.616C23.8817 11.8505 23.75 12.1684 23.75 12.4999C23.75 12.8314 23.8817 13.1494 24.1161 13.3838C24.3505 13.6182 24.6685 13.7499 25 13.7499ZM22.5 16.2499C22.8315 16.2499 23.1495 16.1182 23.3839 15.8838C23.6183 15.6494 23.75 15.3314 23.75 14.9999C23.75 14.6684 23.6183 14.3505 23.3839 14.116C23.1495 13.8816 22.8315 13.7499 22.5 13.7499C22.1685 13.7499 21.8505 13.8816 21.6161 14.116C21.3817 14.3505 21.25 14.6684 21.25 14.9999C21.25 15.3314 21.3817 15.6494 21.6161 15.8838C21.8505 16.1182 22.1685 16.2499 22.5 16.2499Z" fill="#333333"/>
</g>
<defs>
<clipPath id="clip0_104_2182">
<rect width="30" height="30" fill="white"/>
</clipPath>
</defs>
</svg>
