<svg width="30" height="32" viewBox="0 0 30 32" fill="none" xmlns="http://www.w3.org/2000/svg">
<path d="M16.5 0C17.6935 0 18.8381 0.505713 19.682 1.40589C20.5259 2.30606 21 3.52696 21 4.8V9.6H25.5C26.6935 9.6 27.8381 10.1057 28.682 11.0059C29.5259 11.9061 30 13.127 30 14.4V27.2C30 28.473 29.5259 29.6939 28.682 30.5941C27.8381 31.4943 26.6935 32 25.5 32H13.5C12.3065 32 11.1619 31.4943 10.318 30.5941C9.47411 29.6939 9 28.473 9 27.2V22.4H4.5C3.30653 22.4 2.16193 21.8943 1.31802 20.9941C0.474106 20.0939 0 18.873 0 17.6L0 4.8C0 3.52696 0.474106 2.30606 1.31802 1.40589C2.16193 0.505713 3.30653 0 4.5 0L16.5 0ZM15 24C14.6022 24 14.2206 24.1686 13.9393 24.4686C13.658 24.7687 13.5 25.1757 13.5 25.6C13.5 26.0243 13.658 26.4313 13.9393 26.7314C14.2206 27.0314 14.6022 27.2 15 27.2C15.3978 27.2 15.7794 27.0314 16.0607 26.7314C16.342 26.4313 16.5 26.0243 16.5 25.6C16.5 25.1757 16.342 24.7687 16.0607 24.4686C15.7794 24.1686 15.3978 24 15 24ZM24 24C23.6022 24 23.2206 24.1686 22.9393 24.4686C22.658 24.7687 22.5 25.1757 22.5 25.6C22.5 26.0243 22.658 26.4313 22.9393 26.7314C23.2206 27.0314 23.6022 27.2 24 27.2C24.3978 27.2 24.7794 27.0314 25.0607 26.7314C25.342 26.4313 25.5 26.0243 25.5 25.6C25.5 25.1757 25.342 24.7687 25.0607 24.4686C24.7794 24.1686 24.3978 24 24 24ZM19.5 19.2C19.1022 19.2 18.7206 19.3686 18.4393 19.6686C18.158 19.9687 18 20.3757 18 20.8C18 21.2243 18.158 21.6313 18.4393 21.9314C18.7206 22.2314 19.1022 22.4 19.5 22.4C19.8978 22.4 20.2794 22.2314 20.5607 21.9314C20.842 21.6313 21 21.2243 21 20.8C21 20.3757 20.842 19.9687 20.5607 19.6686C20.2794 19.3686 19.8978 19.2 19.5 19.2ZM15 14.4C14.6022 14.4 14.2206 14.5686 13.9393 14.8686C13.658 15.1687 13.5 15.5757 13.5 16C13.5 16.4243 13.658 16.8313 13.9393 17.1314C14.2206 17.4314 14.6022 17.6 15 17.6C15.3978 17.6 15.7794 17.4314 16.0607 17.1314C16.342 16.8313 16.5 16.4243 16.5 16C16.5 15.5757 16.342 15.1687 16.0607 14.8686C15.7794 14.5686 15.3978 14.4 15 14.4ZM24 14.4C23.6022 14.4 23.2206 14.5686 22.9393 14.8686C22.658 15.1687 22.5 15.5757 22.5 16C22.5 16.4243 22.658 16.8313 22.9393 17.1314C23.2206 17.4314 23.6022 17.6 24 17.6C24.3978 17.6 24.7794 17.4314 25.0607 17.1314C25.342 16.8313 25.5 16.4243 25.5 16C25.5 15.5757 25.342 15.1687 25.0607 14.8686C24.7794 14.5686 24.3978 14.4 24 14.4ZM6.7695 14.3888C6.37168 14.3888 5.99014 14.5574 5.70884 14.8574C5.42754 15.1575 5.2695 15.5645 5.2695 15.9888C5.2695 16.4131 5.42754 16.8201 5.70884 17.1202C5.99014 17.4202 6.37168 17.5888 6.7695 17.5888C7.16732 17.5888 7.54886 17.4202 7.83016 17.1202C8.11146 16.8201 8.2695 16.4131 8.2695 15.9888C8.2695 15.5645 8.11146 15.1575 7.83016 14.8574C7.54886 14.5574 7.16732 14.3888 6.7695 14.3888ZM6.7695 9.5888C6.37168 9.5888 5.99014 9.75737 5.70884 10.0574C5.42754 10.3575 5.2695 10.7645 5.2695 11.1888C5.2695 11.6131 5.42754 12.0201 5.70884 12.3202C5.99014 12.6202 6.37168 12.7888 6.7695 12.7888C7.16732 12.7888 7.54886 12.6202 7.83016 12.3202C8.11146 12.0201 8.2695 11.6131 8.2695 11.1888C8.2695 10.7645 8.11146 10.3575 7.83016 10.0574C7.54886 9.75737 7.16732 9.5888 6.7695 9.5888ZM6.7695 4.7888C6.37168 4.7888 5.99014 4.95737 5.70884 5.25743C5.42754 5.55749 5.2695 5.96445 5.2695 6.3888C5.2695 6.81315 5.42754 7.22011 5.70884 7.52017C5.99014 7.82023 6.37168 7.9888 6.7695 7.9888C7.16732 7.9888 7.54886 7.82023 7.83016 7.52017C8.11146 7.22011 8.2695 6.81315 8.2695 6.3888C8.2695 5.96445 8.11146 5.55749 7.83016 5.25743C7.54886 4.95737 7.16732 4.7888 6.7695 4.7888ZM14.2695 4.7888C13.8717 4.7888 13.4901 4.95737 13.2088 5.25743C12.9275 5.55749 12.7695 5.96445 12.7695 6.3888C12.7695 6.81315 12.9275 7.22011 13.2088 7.52017C13.4901 7.82023 13.8717 7.9888 14.2695 7.9888C14.6673 7.9888 15.0489 7.82023 15.3302 7.52017C15.6115 7.22011 15.7695 6.81315 15.7695 6.3888C15.7695 5.96445 15.6115 5.55749 15.3302 5.25743C15.0489 4.95737 14.6673 4.7888 14.2695 4.7888Z" fill="#333333"/>
</svg>
