<svg width="30" height="30" viewBox="0 0 30 30" fill="none" xmlns="http://www.w3.org/2000/svg">
<g clip-path="url(#clip0_104_2186)">
<path d="M24.3125 21.909L22.304 19.9785C21.8271 19.4599 21.235 19.0605 20.5755 18.8126C19.916 18.5646 19.2076 18.4749 18.5071 18.5508C17.8066 18.6267 17.1338 18.866 16.5427 19.2495C15.9516 19.6329 15.4588 20.1498 15.104 20.7585L9.2225 30H3.3125C2.51685 30 1.75379 29.6839 1.19118 29.1213C0.62857 28.5587 0.3125 27.7956 0.3125 27V12C0.3125 11.2044 0.62857 10.4413 1.19118 9.87868C1.75379 9.31607 2.51685 9 3.3125 9H21.3125C22.1081 9 22.8712 9.31607 23.4338 9.87868C23.9964 10.4413 24.3125 11.2044 24.3125 12V21.909ZM24.3125 26.037V27C24.3125 27.7956 23.9964 28.5587 23.4338 29.1213C22.8712 29.6839 22.1081 30 21.3125 30H13.0805L17.696 22.269C17.8142 22.066 17.9784 21.8936 18.1754 21.7657C18.3723 21.6378 18.5966 21.558 18.8301 21.5326C19.0636 21.5072 19.2998 21.537 19.5197 21.6195C19.7395 21.7021 19.9369 21.8352 20.096 22.008L24.3125 26.037ZM9.3125 22.5C9.90345 22.5 10.4886 22.3836 11.0346 22.1575C11.5805 21.9313 12.0766 21.5998 12.4945 21.182C12.9123 20.7641 13.2438 20.268 13.47 19.7221C13.6961 19.1761 13.8125 18.5909 13.8125 18C13.8125 17.4091 13.6961 16.8239 13.47 16.2779C13.2438 15.732 12.9123 15.2359 12.4945 14.818C12.0766 14.4002 11.5805 14.0687 11.0346 13.8425C10.4886 13.6164 9.90345 13.5 9.3125 13.5C8.11903 13.5 6.97443 13.9741 6.13052 14.818C5.28661 15.6619 4.8125 16.8065 4.8125 18C4.8125 19.1935 5.28661 20.3381 6.13052 21.182C6.97443 22.0259 8.11903 22.5 9.3125 22.5ZM6.3125 7.5V3C6.3125 2.20435 6.62857 1.44129 7.19118 0.87868C7.75379 0.31607 8.51685 0 9.3125 0H27.3125C28.1081 0 28.8712 0.31607 29.4338 0.87868C29.9964 1.44129 30.3125 2.20435 30.3125 3V13.14L28.304 10.9785C27.5652 10.1743 26.5592 9.66628 25.4735 9.549C24.9245 8.3355 23.7725 7.5 22.4375 7.5H19.5575C19.2476 6.6217 18.6729 5.86115 17.9126 5.32318C17.1523 4.78522 16.2439 4.49632 15.3125 4.49632C14.3811 4.49632 13.4727 4.78522 12.7124 5.32318C11.9521 5.86115 11.3774 6.6217 11.0675 7.5H6.3125ZM25.8125 21V12.768C25.9166 12.8359 26.0118 12.9166 26.096 13.008L30.3125 17.4915V18C30.3125 18.7956 29.9964 19.5587 29.4338 20.1213C28.8712 20.6839 28.1081 21 27.3125 21H25.8125Z" fill="#333333"/>
</g>
<defs>
<clipPath id="clip0_104_2186">
<rect width="30" height="30" fill="white"/>
</clipPath>
</defs>
</svg>
