<svg width="30" height="30" viewBox="0 0 30 30" fill="none" xmlns="http://www.w3.org/2000/svg">
<path d="M11.227 25.6669C10.8912 26.1235 10.5212 26.5537 10.12 26.954C8.166 28.9063 5.21837 29.4965 1.27875 28.7212C0.503498 24.7816 1.09369 21.834 3.04599 19.88C3.4578 19.4682 3.8896 19.0998 4.33308 18.7747C2.96579 18.1068 1.50462 17.6514 0 17.4242C0.484702 15.9041 1.32751 14.5227 2.45747 13.3962C4.1551 11.6935 6.41114 10.662 8.80954 10.492C9.8163 8.75063 11.0497 7.15059 12.4774 5.73374C18.0125 0.198603 25.1365 -1.64867 28.3926 1.6074C31.6487 4.86346 29.8014 11.9891 24.2663 17.5226C22.8494 18.9503 21.2494 20.1837 19.508 21.1905C19.338 23.5889 18.3065 25.8449 16.6038 27.5425C15.4779 28.6732 14.0963 29.5161 12.5758 30C12.3486 28.4954 11.8932 27.0342 11.2253 25.6669H11.227ZM21.317 8.68304C21.4719 8.83794 21.6558 8.96081 21.8581 9.04465C22.0605 9.12848 22.2774 9.17163 22.4965 9.17163C22.7156 9.17163 22.9325 9.12848 23.1349 9.04465C23.3373 8.96081 23.5212 8.83794 23.6761 8.68304C23.831 8.52814 23.9538 8.34424 24.0377 8.14186C24.1215 7.93947 24.1646 7.72255 24.1646 7.50349C24.1646 7.28443 24.1215 7.06751 24.0377 6.86512C23.9538 6.66273 23.831 6.47884 23.6761 6.32394C23.3632 6.0111 22.9389 5.83535 22.4965 5.83535C22.0541 5.83535 21.6298 6.0111 21.317 6.32394C21.0041 6.63677 20.8284 7.06107 20.8284 7.50349C20.8284 7.94591 21.0041 8.3702 21.317 8.68304ZM8.34939 21.6506C8.16767 21.4672 7.87257 21.1888 7.46577 20.812C6.74553 21.0621 5.89192 21.769 5.10833 22.5342C4.4898 23.1394 4.27973 24.1564 4.27473 25.7353C5.85191 25.7286 6.97561 25.3685 7.46577 24.8917C8.25103 24.1264 8.94959 23.3628 9.19967 22.6409C9.01294 22.3175 8.62282 21.924 8.34939 21.6506Z" fill="#333333"/>
</svg>
