<svg width="30" height="30" viewBox="0 0 30 30" fill="none" xmlns="http://www.w3.org/2000/svg">
<path d="M9.02144 11.6716C9.17273 13.9025 7.99426 15.8055 6.38582 15.921C4.78003 16.0365 3.3534 14.3219 3.20079 12.0897C3.04817 9.85882 4.22796 7.95576 5.83508 7.84031C7.44219 7.72485 8.86882 9.43946 9.02011 11.6716H9.02144ZM20.0894 2.42176C18.5288 2.01302 16.8274 3.43965 16.2913 5.6068C15.7525 7.77395 16.5819 9.8628 18.1426 10.2715C19.7046 10.6803 21.4072 9.25366 21.9434 7.08651C22.6428 4.26378 20.465 2.51864 20.0908 2.42176H20.0894ZM23.7522 9.72877C22.1093 9.75265 20.8061 11.3558 20.8419 13.8375C20.8777 16.3191 22.2354 17.4498 23.881 17.4246C25.5212 17.3994 26.8271 16.2289 26.79 13.7459C26.7422 10.5157 24.145 9.72213 23.7509 9.72877H23.7522ZM11.8508 1.875C10.2888 1.875 9.02144 3.67189 9.02144 5.88682C9.02144 8.10307 10.2888 9.89863 11.8508 9.89863C13.4141 9.89863 14.6815 8.10307 14.6815 5.88682C14.6815 3.67056 13.4141 1.875 11.8508 1.875ZM11.4898 14.3351C10.5874 15.6649 9.56289 16.9628 7.5749 18.6641C5.58823 20.3655 4.74553 21.5399 4.74553 23.2718C4.74553 25.0023 5.709 27.8782 8.44813 27.8782C11.1886 27.8782 12.513 27.2597 14.6815 27.2597C16.8487 27.2597 18.2952 28.125 21.0343 28.125C23.7735 28.125 24.9174 25.4668 24.9174 23.735C24.9174 22.0031 24.4423 21.0237 22.2473 19.0476C20.8406 17.7803 19.6488 16.7478 17.7816 14.0883C16.8593 12.7745 15.7949 12.6046 14.6815 12.6046C13.5667 12.6046 12.3936 13.0054 11.4898 14.3351Z" fill="#333333"/>
</svg>
