<svg width="30" height="30" viewBox="0 0 30 30" fill="none" xmlns="http://www.w3.org/2000/svg">
<path d="M18.459 10.1323C17.0832 13.2425 16.3392 16.6011 16.2713 20.0084C16.2494 22.9007 16.6959 25.7771 17.5931 28.5231C15.8902 29.498 13.9659 30.007 12.0097 29.9999C10.2052 30.0023 8.42593 29.5708 6.81836 28.7407C5.21079 27.9107 3.8209 26.7059 2.7631 25.2256C1.70531 23.7453 1.00986 22.0318 0.734018 20.2261C0.458171 18.4204 0.609811 16.5742 1.17645 14.8394C1.7431 13.1047 2.70854 11.531 3.99331 10.248C5.27807 8.96494 6.84542 8.0092 8.56632 7.45945C10.2872 6.90971 12.1125 6.78167 13.8918 7.08588C15.6711 7.3901 17.3537 8.11786 18.8009 9.20927C18.7097 9.50924 18.573 9.80922 18.459 10.1323ZM7.72538 17.3086C7.72538 17.0257 7.64251 16.7491 7.48725 16.5138C7.332 16.2785 7.11133 16.0952 6.85315 15.9869C6.59498 15.8786 6.31088 15.8503 6.0368 15.9055C5.76272 15.9607 5.51096 16.0969 5.31336 16.297C5.11576 16.4971 4.98119 16.752 4.92667 17.0295C4.87216 17.307 4.90014 17.5947 5.00708 17.8561C5.11402 18.1175 5.29512 18.341 5.52747 18.4982C5.75983 18.6554 6.033 18.7393 6.31245 18.7393C6.49501 18.7423 6.67638 18.7089 6.8462 18.641C7.01601 18.5731 7.17095 18.472 7.30215 18.3434C7.43336 18.2148 7.53827 18.0613 7.61089 17.8917C7.6835 17.7221 7.72241 17.5396 7.72538 17.3548V17.3086ZM8.59136 14.1243C8.87081 14.1243 9.14399 14.0404 9.37634 13.8832C9.6087 13.726 9.78979 13.5025 9.89674 13.2411C10.0037 12.9797 10.0317 12.692 9.97714 12.4145C9.92262 12.137 9.78805 11.8821 9.59045 11.682C9.39285 11.4819 9.14109 11.3456 8.86701 11.2904C8.59293 11.2352 8.30884 11.2636 8.05066 11.3719C7.79248 11.4801 7.57181 11.6635 7.41656 11.8988C7.2613 12.134 7.17844 12.4107 7.17844 12.6936C7.17542 12.8787 7.20847 13.0625 7.2757 13.2346C7.34293 13.4067 7.44302 13.5637 7.57023 13.6965C7.69745 13.8294 7.8493 13.9356 8.01708 14.009C8.18487 14.0824 8.36531 14.1216 8.54806 14.1243H8.59136ZM12.2832 17.3086C12.2832 17.0257 12.2003 16.7491 12.0451 16.5138C11.8898 16.2785 11.6692 16.0952 11.411 15.9869C11.1528 15.8786 10.8687 15.8503 10.5946 15.9055C10.3205 15.9607 10.0688 16.0969 9.87119 16.297C9.67358 16.4971 9.53901 16.752 9.4845 17.0295C9.42998 17.307 9.45796 17.5947 9.5649 17.8561C9.67184 18.1175 9.85294 18.341 10.0853 18.4982C10.3176 18.6554 10.5908 18.7393 10.8703 18.7393C11.0528 18.7423 11.2342 18.7089 11.404 18.641C11.5738 18.5731 11.7288 18.472 11.86 18.3434C11.9912 18.2148 12.0961 18.0613 12.1687 17.8917C12.2413 17.7221 12.2802 17.5396 12.2832 17.3548V17.3086ZM23.2265 5.00037C23.2265 3.33435 22.8984 3.33435 22.8984 1.66602C22.8984 1.22417 23.0717 0.800406 23.3803 0.487966C23.6889 0.175527 24.1074 0 24.5437 0C24.9801 0 25.3986 0.175527 25.7072 0.487966C26.0158 0.800406 26.1891 1.22417 26.1891 1.66602C26.1891 3.33435 25.861 3.33435 25.861 5.00037C25.861 10.0007 29.4001 13.3466 29.4001 19.9992C29.4001 24.9996 27.8368 29.9976 26.1891 29.9976H22.8984C21.253 29.9976 19.6874 24.9996 19.6874 19.9992C19.6874 13.3466 23.2265 9.99844 23.2265 5.00037Z" fill="#333333"/>
</svg>
