<svg width="30" height="30" viewBox="0 0 30 30" fill="none" xmlns="http://www.w3.org/2000/svg">
<path d="M15.056 1.79012L18 4.00012H20L22.946 1.79212C23.0439 1.71925 23.1601 1.67496 23.2817 1.66418C23.4033 1.6534 23.5255 1.67655 23.6347 1.73106C23.7439 1.78556 23.8359 1.86929 23.9004 1.97293C23.9649 2.07656 23.9993 2.19605 24 2.31812V9.00012C24 10.4441 22.956 11.3681 22 12.1461V20.0001L23.6 24.8001L25.012 25.5061C25.309 25.6547 25.5588 25.8831 25.7333 26.1657C25.9078 26.4484 26.0002 26.774 26 27.1061C26 27.6001 25.6 28.0001 25.106 28.0001H8.5C6.034 28.0001 4 26.0001 4 23.4261C4 19.0861 4.906 15.8601 5.49 13.6901C5.782 12.6041 6.07 11.7901 6.276 11.2281C6.392 10.9141 6.506 10.6221 6.66 10.3301C7.558 8.62012 10.148 9.91012 9.344 11.6661C9.24959 11.875 9.16089 12.0864 9.078 12.3001C8.896 12.7641 8.65 13.4861 8.386 14.4681C7.894 16.2981 7.348 19.0421 7.116 22.7341C7.852 18.6141 11.96 14.4781 15.27 11.5161C14.58 10.8641 14.002 10.0761 14.002 9.00012V2.31612C14.002 1.77612 14.622 1.46612 15.056 1.79012Z" fill="#333333"/>
</svg>
