<svg width="30" height="30" viewBox="0 0 30 30" fill="none" xmlns="http://www.w3.org/2000/svg">
<path d="M3.23627 18.4258L0 16.9948C3.59465 9.18997 10.1704 3.08592 18.3081 0L18.372 0.162608L19.5809 3.25448L19.5714 3.2568C12.3205 6.02835 6.45887 11.4715 3.23627 18.4258ZM29.1714 29.9477L5.66584 19.5478C8.63072 13.148 14.0248 8.13895 20.6975 5.58906L20.7046 5.58673L22.6373 10.5161C22.5711 10.5114 22.5143 10.4789 22.4457 10.4789C22.0291 10.4765 21.6185 10.5758 21.2507 10.7679C20.8829 10.96 20.5696 11.2389 20.3388 11.5795C20.1081 11.9201 19.9673 12.3116 19.9289 12.719C19.8906 13.1263 19.9561 13.5366 20.1194 13.9129C20.2827 14.2892 20.5387 14.6198 20.8644 14.8748C21.1902 15.1298 21.5753 15.3013 21.9853 15.3738C22.3953 15.4463 22.8172 15.4175 23.2131 15.2901C23.609 15.1628 23.9663 14.9407 24.2531 14.644L29.9615 29.2159C30.0029 29.3227 30.0111 29.4391 29.9852 29.5505C29.9592 29.6619 29.9003 29.7632 29.8158 29.8417C29.7313 29.9203 29.625 29.9725 29.5103 29.9917C29.3956 30.011 29.2777 29.9965 29.1714 29.95V29.9477ZM17.5085 17.471C17.5085 17.0466 17.3804 16.6317 17.1403 16.2788C16.9002 15.9259 16.5589 15.6507 16.1597 15.4882C15.7604 15.3257 15.321 15.283 14.897 15.3657C14.4731 15.4483 14.0836 15.6525 13.7778 15.9525C13.472 16.2524 13.2636 16.6346 13.179 17.0509C13.0944 17.4671 13.1373 17.8986 13.3024 18.2908C13.4675 18.6831 13.7473 19.0185 14.1065 19.2546C14.4656 19.4907 14.888 19.617 15.3202 19.6175C15.6075 19.6175 15.8919 19.5619 16.1573 19.4538C16.4227 19.3458 16.6637 19.1875 16.8667 18.988C17.0697 18.7884 17.2307 18.5515 17.3404 18.2908C17.4501 18.0301 17.5064 17.7508 17.5061 17.4687L17.5085 17.471ZM24.6458 22.1867C24.6458 21.7618 24.5175 21.3464 24.2772 20.9931C24.0368 20.6398 23.6952 20.3644 23.2955 20.2017C22.8958 20.039 22.4559 19.9963 22.0315 20.079C21.6071 20.1617 21.2172 20.3662 20.911 20.6664C20.6049 20.9667 20.3963 21.3494 20.3116 21.766C20.2269 22.1827 20.2699 22.6147 20.4352 23.0073C20.6004 23.4 20.8805 23.7358 21.2401 23.9721C21.5996 24.2085 22.0225 24.3349 22.4552 24.3354C22.7427 24.3354 23.0275 24.2797 23.2931 24.1716C23.5588 24.0635 23.8001 23.905 24.0033 23.7052C24.2066 23.5054 24.3677 23.2683 24.4775 23.0073C24.5874 22.7464 24.6437 22.4667 24.6434 22.1843L24.6458 22.1867Z" fill="#333333"/>
</svg>
