<svg width="30" height="30" viewBox="0 0 30 30" fill="none" xmlns="http://www.w3.org/2000/svg">
<path d="M11.5385 3.125C10.26 3.125 9.80308 4.32438 9.23077 5.5L8.07692 7.875H3.46154C1.54385 7.875 0 9.46387 0 11.4375V23.3125C0 25.2861 1.54385 26.875 3.46154 26.875H26.5385C28.4562 26.875 30 25.2861 30 23.3125V11.4375C30 9.46387 28.4562 7.875 26.5385 7.875H21.9231L20.7692 5.5C20.1923 4.3125 19.74 3.125 18.4615 3.125H11.5385ZM3.46154 10.25C3.76756 10.25 4.06104 10.3751 4.27743 10.5978C4.49382 10.8205 4.61538 11.1226 4.61538 11.4375C4.61538 11.7524 4.49382 12.0545 4.27743 12.2772C4.06104 12.4999 3.76756 12.625 3.46154 12.625C3.15552 12.625 2.86203 12.4999 2.64565 12.2772C2.42926 12.0545 2.30769 11.7524 2.30769 11.4375C2.30769 11.1226 2.42926 10.8205 2.64565 10.5978C2.86203 10.3751 3.15552 10.25 3.46154 10.25ZM15 10.25C16.8361 10.25 18.597 11.0007 19.8954 12.3369C21.1937 13.6731 21.9231 15.4853 21.9231 17.375C21.9231 19.2647 21.1937 21.0769 19.8954 22.4131C18.597 23.7493 16.8361 24.5 15 24.5C13.1639 24.5 11.403 23.7493 10.1046 22.4131C8.80632 21.0769 8.07692 19.2647 8.07692 17.375C8.07692 15.4853 8.80632 13.6731 10.1046 12.3369C11.403 11.0007 13.1639 10.25 15 10.25ZM15 13.8125C14.0819 13.8125 13.2015 14.1878 12.5523 14.8559C11.9032 15.524 11.5385 16.4302 11.5385 17.375C11.5385 18.3198 11.9032 19.226 12.5523 19.8941C13.2015 20.5622 14.0819 20.9375 15 20.9375C15.9181 20.9375 16.7985 20.5622 17.4477 19.8941C18.0968 19.226 18.4615 18.3198 18.4615 17.375C18.4615 16.4302 18.0968 15.524 17.4477 14.8559C16.7985 14.1878 15.9181 13.8125 15 13.8125Z" fill="#333333"/>
</svg>
