<svg width="30" height="30" viewBox="0 0 30 30" fill="none" xmlns="http://www.w3.org/2000/svg">
<path d="M1.26863 13.5993C-4.23825 3.10152 9.64315 -3.89701 15.0001 6.60079C20.3547 -3.89929 34.2384 3.09924 28.7315 13.5993C28.5308 13.9808 28.2632 14.3896 28.014 14.7893H23.8429L19.6557 8.57427C19.51 8.35799 19.3074 8.18521 19.0698 8.07456C18.8322 7.96391 18.5686 7.91959 18.3074 7.94639C18.0463 7.97319 17.7975 8.07008 17.5878 8.22662C17.3782 8.38316 17.2157 8.5934 17.1179 8.83465L13.3159 18.2452L10.2476 15.2073C9.97675 14.9405 9.60999 14.791 9.22788 14.7916H1.98612C1.73465 14.3919 1.46934 13.9831 1.26863 13.6039V13.5993ZM23.0701 17.6468C22.8328 17.6466 22.5992 17.5886 22.39 17.4779C22.1808 17.3671 22.0023 17.2071 21.8704 17.0118L18.7767 12.4161L15.18 21.3173C15.0913 21.5367 14.9489 21.7309 14.7657 21.8824C14.5825 22.0339 14.3642 22.138 14.1303 22.1853C14.0354 22.2043 13.9388 22.2135 13.8419 22.2127C13.4598 22.2134 13.0931 22.0639 12.8222 21.797L8.63036 17.6445H4.00477C7.15713 21.4555 10.5968 25.0243 14.2941 28.3204C14.4909 28.4964 14.7465 28.5938 15.0116 28.5938C15.2767 28.5938 15.5324 28.4964 15.7291 28.3204C19.4149 25.0198 22.8465 21.4513 25.9954 17.6445H23.0701V17.6468Z" fill="#333333"/>
</svg>
