<svg width="30" height="30" viewBox="0 0 30 30" fill="none" xmlns="http://www.w3.org/2000/svg">
<path d="M27.9153 0.00157834C27.9153 0.00157834 24.8243 -0.089528 23.591 1.11263C22.4044 2.26813 21.9156 3.15252 21.9156 5.55684H1.25L4.34761 16.2541C4.35428 16.2718 4.36984 16.2874 4.3765 16.3029C4.8987 17.7629 6.26085 18.8139 7.88521 18.8761L7.91409 18.8895H22.3578V19.3339C22.3578 19.3339 22.36 20.0005 21.9156 20.8894C21.4712 21.7782 21.2489 22.2226 19.4713 22.2226H5.02758C2.80547 22.2226 2.80547 25.5558 5.02758 25.5558H19.2491C21.9156 25.5558 23.9155 24.0003 24.5821 22.4448C25.2487 20.8894 25.2487 19.5561 25.2487 19.5561V5.55684C25.2487 4.39246 25.7576 3.33474 26.8042 3.33474H28.0264C28.4684 3.33474 28.8923 3.15915 29.2048 2.84661C29.5174 2.53406 29.6929 2.11016 29.6929 1.66816C29.6929 1.22615 29.5174 0.802252 29.2048 0.489708C28.8923 0.177164 28.4684 0.00157834 28.0264 0.00157834H27.9153ZM19.0268 25.5558C17.6936 25.5558 16.8047 26.4446 16.8047 27.7779C16.8047 29.1112 17.6936 30 19.0268 30C20.3601 30 21.2489 29.1112 21.2489 27.7779C21.2489 26.4446 20.3601 25.5558 19.0268 25.5558ZM7.91632 25.5558C6.58305 25.5558 5.69421 26.4446 5.69421 27.7779C5.69421 29.1112 6.58305 30 7.91632 30C9.24958 30 10.1384 29.1112 10.1384 27.7779C10.1384 26.4446 9.24958 25.5558 7.91632 25.5558Z" fill="#333333"/>
</svg>
