<svg width="30" height="30" viewBox="0 0 30 30" fill="none" xmlns="http://www.w3.org/2000/svg">
<g clip-path="url(#clip0_104_2157)">
<path d="M18.39 17.6108L15 21.0008H12V24.0008H9V27.0008L6 30.0008H0V24.0008L12.39 11.6108C11.8076 9.69076 11.8835 7.63117 12.6056 5.75919C13.3277 3.88722 14.6546 2.31023 16.3756 1.27873C18.0966 0.247227 20.1129 -0.179621 22.1042 0.0659911C24.0955 0.311603 25.9477 1.21559 27.3664 2.63434C28.7852 4.0531 29.6892 5.90526 29.9348 7.89659C30.1804 9.88792 29.7536 11.9042 28.7221 13.6252C27.6906 15.3462 26.1136 16.6731 24.2416 17.3952C22.3696 18.1173 20.31 18.1932 18.39 17.6108ZM25.68 10.6808C26.3085 10.0515 26.7365 9.25 26.9098 8.37761C27.0831 7.50521 26.994 6.60103 26.6537 5.77925C26.3135 4.95747 25.7373 4.25496 24.998 3.76044C24.2587 3.26592 23.3894 3.00157 22.5 3.00079C21.3069 3.00184 20.1631 3.47664 19.32 4.32079L25.68 10.6808Z" fill="#333333"/>
</g>
<defs>
<clipPath id="clip0_104_2157">
<rect width="30" height="30" fill="white"/>
</clipPath>
</defs>
</svg>
