<svg width="30" height="30" viewBox="0 0 30 30" fill="none" xmlns="http://www.w3.org/2000/svg">
<path d="M3 18H30V27H27V24H3V27H0V3H3V18ZM15 9H27C27.7956 9 28.5587 9.31607 29.1213 9.87868C29.6839 10.4413 30 11.2043 30 12V16.5H15V9ZM9 16.5C7.80653 16.5 6.66193 16.0259 5.81802 15.182C4.97411 14.3381 4.5 13.1935 4.5 12C4.5 10.8065 4.97411 9.66193 5.81802 8.81802C6.66193 7.97411 7.80653 7.5 9 7.5C10.1935 7.5 11.3381 7.97411 12.182 8.81802C13.0259 9.66193 13.5 10.8065 13.5 12C13.5 13.1935 13.0259 14.3381 12.182 15.182C11.3381 16.0259 10.1935 16.5 9 16.5Z" fill="#333333"/>
</svg>
