<svg width="30" height="30" viewBox="0 0 30 30" fill="none" xmlns="http://www.w3.org/2000/svg">
<g clip-path="url(#clip0_104_2153)">
<path d="M23.6252 11.9999L18.0152 6.37492C17.9303 5.15539 18.2209 3.93912 18.8479 2.88968C19.4749 1.84024 20.4082 1.00797 21.5224 0.504816C22.6365 0.0016594 23.878 -0.148255 25.0799 0.0752347C26.2817 0.298725 27.3864 0.884901 28.2452 1.75492C29.1123 2.61591 29.696 3.72115 29.918 4.92283C30.1399 6.12451 29.9897 7.36532 29.4874 8.4793C28.985 9.59328 28.1545 10.5273 27.1069 11.1565C26.0593 11.7856 24.8445 12.0799 23.6252 11.9999ZM2.77516 22.9499L16.5752 9.16493L20.8202 13.4099L7.02015 27.2099L2.79016 22.9499H2.77516ZM0.675156 27.1949L3.84016 24.0149L5.97016 26.1449L2.79016 29.3249L0.660156 27.1949H0.675156ZM15.0002 22.4999L18.0002 19.4999V29.9999H15.0002V22.4999Z" fill="#333333"/>
</g>
<defs>
<clipPath id="clip0_104_2153">
<rect width="30" height="30" fill="white"/>
</clipPath>
</defs>
</svg>
