<svg width="30" height="30" viewBox="0 0 30 30" fill="none" xmlns="http://www.w3.org/2000/svg">
<g clip-path="url(#clip0_104_2151)">
<path d="M9 6H7.5C7.10217 6 6.72064 5.84196 6.43934 5.56066C6.15804 5.27936 6 4.89782 6 4.5C6 4.10218 6.15804 3.72064 6.43934 3.43934C6.72064 3.15804 7.10217 3 7.5 3H24V1.5C24 1.10218 23.842 0.720644 23.5607 0.43934C23.2794 0.158035 22.8978 0 22.5 0L6 0C5.20435 0 4.44129 0.316071 3.87868 0.87868C3.31607 1.44129 3 2.20435 3 3V27C3 28.65 4.35 30 6 30H24C24.7956 30 25.5587 29.6839 26.1213 29.1213C26.6839 28.5587 27 27.7956 27 27V7.5C27 7.10218 26.842 6.72064 26.5607 6.43934C26.2794 6.15804 25.8978 6 25.5 6H15V18L12 15L9 18V6Z" fill="#333333"/>
</g>
<defs>
<clipPath id="clip0_104_2151">
<rect width="30" height="30" fill="white"/>
</clipPath>
</defs>
</svg>
